<svg width="60" height="61" viewBox="0 0 60 61" fill="none" xmlns="http://www.w3.org/2000/svg">
<circle cx="30" cy="30.5" r="30" fill="#0077FF"/>
<path fill-rule="evenodd" clip-rule="evenodd" d="M24.9377 17.6429C24.7408 17.6429 24.5465 17.6881 24.3698 17.7751L19.1629 20.3385C18.9577 20.4357 18.7761 20.5881 18.6428 20.7897C18.6308 20.8077 18.6193 20.826 18.6083 20.8446L14.7705 27.2411C14.764 27.2513 14.7576 27.2617 14.7514 27.2722C14.6998 27.359 14.6593 27.4506 14.6299 27.5449C14.5999 27.6408 14.5816 27.7386 14.5747 27.8365C14.5644 27.977 14.5777 28.1157 14.6117 28.2479C14.646 28.3822 14.7023 28.5121 14.7806 28.6318C14.8332 28.7123 14.8952 28.7876 14.9663 28.8558L29.0839 42.9734C29.1004 42.9902 29.1174 43.0065 29.1348 43.0223C29.3553 43.2233 29.6289 43.3338 29.9077 43.3538L29.9385 43.3557L29.9414 43.3558C29.961 43.3567 29.9806 43.3571 30.0002 43.3571C30.0368 43.3571 30.0735 43.3556 30.1101 43.3525C30.3829 43.3292 30.6496 43.2192 30.8656 43.0223C30.883 43.0065 30.8999 42.9902 30.9164 42.9734L45.0339 28.8559C45.0402 28.8499 45.0464 28.8439 45.0525 28.8377C45.1359 28.7545 45.206 28.6616 45.2622 28.5621C45.3166 28.4662 45.3576 28.3648 45.3854 28.2606C45.4234 28.1186 45.4375 27.9689 45.4242 27.8174C45.4137 27.6954 45.3857 27.574 45.3395 27.457C45.3165 27.3985 45.289 27.3414 45.2571 27.2861C45.2334 27.2449 45.2075 27.2053 45.1797 27.1674L40.6964 20.7627C40.5762 20.5911 40.4217 20.4577 40.2487 20.3655L35.6921 17.8074C35.4999 17.6995 35.2831 17.6429 35.0627 17.6429H24.9377ZM39.1554 23.0454L34.7972 24.6302L36.3469 28.7628C36.3482 28.7663 36.3495 28.7697 36.3507 28.7732L42.0491 27.1792L39.1554 23.0454ZM33.7699 29.2143L32.3235 25.3571H27.6769L26.2305 29.2143H33.7699ZM23.6497 28.7732C23.6509 28.7697 23.6522 28.7663 23.6535 28.7628L25.185 24.6788L20.2864 23.0459L17.8272 27.1445L23.6497 28.7732ZM23.0917 21.2705L25.237 20.2143H34.7265L36.5702 21.2493L32.3451 22.7857H27.6374L23.0917 21.2705ZM26.013 36.266L20.2353 30.4882L23.9008 31.5136L26.013 36.266ZM30.0002 38.9057L26.8357 31.7857H33.1646L30.0002 38.9057ZM33.9874 36.266L36.0995 31.5136L39.7651 30.4882L33.9874 36.266Z" fill="white"/>
</svg>
