<svg width="34" height="34" viewBox="0 0 34 34" fill="none" xmlns="http://www.w3.org/2000/svg">
<circle cx="17" cy="17" r="17" fill="#0055FF"/>
<path d="M10.9444 10.9444C11.2512 10.6376 11.7487 10.6376 12.0555 10.9444L16.9999 15.8882L21.9444 10.9444C22.2276 10.6612 22.6733 10.6394 22.9815 10.8791L23.0555 10.9444C23.3624 11.2513 23.3624 11.7488 23.0555 12.0556L18.1117 17L23.0555 21.9444C23.3388 22.2277 23.3606 22.6733 23.1209 22.9816L23.0555 23.0556C22.7487 23.3624 22.2512 23.3624 21.9444 23.0556L16.9999 18.1118L12.0555 23.0556C11.7723 23.3388 11.3266 23.3606 11.0184 23.121L10.9444 23.0556C10.6375 22.7488 10.6375 22.2513 10.9444 21.9444L15.8882 17L10.9444 12.0556C10.6611 11.7724 10.6393 11.3267 10.879 11.0184L10.9444 10.9444Z" fill="white"/>
</svg>
