<svg width="641" height="298" viewBox="0 0 641 298" fill="none" xmlns="http://www.w3.org/2000/svg">
<rect x="115" y="255" width="100" height="43" fill="#0055FF"/>
<rect x="223" y="212" width="98" height="86" fill="#0055FF"/>
<rect x="330" y="168" width="99" height="129" fill="#0055FF"/>
<rect x="438" y="125" width="98" height="172" fill="#0055FF"/>
<rect x="545" y="82" width="96" height="216" fill="#0055FF"/>
<path d="M147.436 283.27H145.226V278.304H140.234V276.068H145.226V271.102H147.436V276.068H152.428V278.304H147.436V283.27ZM162.634 273.702C163.778 273.702 164.801 273.971 165.702 274.508C166.604 275.045 167.306 275.791 167.808 276.744C168.311 277.697 168.562 278.772 168.562 279.968C168.562 281.181 168.285 282.265 167.73 283.218C167.193 284.171 166.439 284.917 165.468 285.454C164.498 285.991 163.388 286.26 162.14 286.26C160.511 286.26 159.116 285.818 157.954 284.934C156.81 284.05 156.039 282.88 155.64 281.424L158.214 280.982C158.613 281.901 159.133 282.603 159.774 283.088C160.433 283.556 161.204 283.79 162.088 283.79C163.198 283.79 164.09 283.435 164.766 282.724C165.46 282.013 165.806 281.095 165.806 279.968C165.806 278.841 165.468 277.931 164.792 277.238C164.134 276.527 163.276 276.172 162.218 276.172C161.456 276.172 160.771 276.354 160.164 276.718C159.575 277.065 159.107 277.515 158.76 278.07H156.16L157.226 267.67H167.756V270.14H159.488L159.02 274.898C160.008 274.101 161.213 273.702 162.634 273.702ZM175.337 276.042C174.037 276.042 172.971 275.643 172.139 274.846C171.307 274.031 170.891 272.991 170.891 271.726C170.891 270.894 171.081 270.149 171.463 269.49C171.844 268.831 172.373 268.32 173.049 267.956C173.725 267.592 174.487 267.41 175.337 267.41C176.169 267.41 176.923 267.601 177.599 267.982C178.275 268.346 178.803 268.857 179.185 269.516C179.566 270.157 179.757 270.894 179.757 271.726C179.757 272.991 179.341 274.031 178.509 274.846C177.677 275.643 176.619 276.042 175.337 276.042ZM176.221 286H173.803L185.113 267.67H187.531L176.221 286ZM175.337 274.092C176.03 274.092 176.593 273.875 177.027 273.442C177.46 272.991 177.677 272.419 177.677 271.726C177.677 271.033 177.46 270.469 177.027 270.036C176.593 269.585 176.03 269.36 175.337 269.36C174.643 269.36 174.071 269.577 173.621 270.01C173.187 270.443 172.971 271.015 172.971 271.726C172.971 272.419 173.187 272.991 173.621 273.442C174.071 273.875 174.643 274.092 175.337 274.092ZM185.997 286.26C184.697 286.26 183.631 285.861 182.799 285.064C181.984 284.249 181.577 283.201 181.577 281.918C181.577 280.653 181.984 279.621 182.799 278.824C183.631 278.027 184.697 277.628 185.997 277.628C186.846 277.628 187.6 277.81 188.259 278.174C188.935 278.538 189.463 279.049 189.845 279.708C190.226 280.349 190.417 281.086 190.417 281.918C190.417 282.75 190.226 283.495 189.845 284.154C189.463 284.813 188.935 285.333 188.259 285.714C187.6 286.078 186.846 286.26 185.997 286.26ZM185.997 284.31C186.69 284.31 187.253 284.093 187.687 283.66C188.12 283.209 188.337 282.629 188.337 281.918C188.337 281.225 188.12 280.661 187.687 280.228C187.253 279.795 186.69 279.578 185.997 279.578C185.286 279.578 184.714 279.795 184.281 280.228C183.847 280.661 183.631 281.225 183.631 281.918C183.631 282.629 183.847 283.209 184.281 283.66C184.731 284.093 185.303 284.31 185.997 284.31Z" fill="white"/>
<path d="M134.147 238.776C134.584 238.904 134.947 239.139 135.235 239.48C135.523 239.811 135.667 240.221 135.667 240.712C135.667 241.171 135.534 241.587 135.267 241.96C135 242.323 134.616 242.616 134.115 242.84C133.624 243.053 133.054 243.16 132.403 243.16C131.528 243.16 130.776 242.957 130.147 242.552C129.518 242.136 129.102 241.581 128.899 240.888L130.355 240.648C130.707 241.416 131.384 241.8 132.387 241.8C132.942 241.8 133.363 241.699 133.651 241.496C133.95 241.283 134.099 240.989 134.099 240.616C134.099 240.285 133.96 240.019 133.683 239.816C133.416 239.613 132.984 239.512 132.387 239.512H131.299V238.136H132.387C132.899 238.136 133.288 238.04 133.555 237.848C133.832 237.656 133.971 237.4 133.971 237.08C133.971 236.739 133.822 236.461 133.523 236.248C133.235 236.035 132.878 235.928 132.451 235.928C132.035 235.928 131.662 236.029 131.331 236.232C131 236.435 130.75 236.712 130.579 237.064L129.123 236.808C129.368 236.093 129.79 235.544 130.387 235.16C130.995 234.765 131.699 234.568 132.499 234.568C133.075 234.568 133.592 234.669 134.051 234.872C134.52 235.075 134.883 235.357 135.139 235.72C135.406 236.083 135.539 236.488 135.539 236.936C135.539 237.395 135.411 237.784 135.155 238.104C134.899 238.424 134.563 238.648 134.147 238.776ZM140.774 234.568C141.798 234.568 142.603 234.904 143.19 235.576C143.787 236.237 144.086 237.165 144.086 238.36V243H142.966L142.598 241.704C142.331 242.12 141.974 242.467 141.526 242.744C141.078 243.021 140.539 243.16 139.91 243.16C139.355 243.16 138.859 243.048 138.422 242.824C137.984 242.6 137.643 242.291 137.398 241.896C137.152 241.491 137.03 241.037 137.03 240.536C137.03 239.757 137.339 239.133 137.958 238.664C138.576 238.195 139.472 237.96 140.646 237.96H142.518C142.475 237.309 142.294 236.808 141.974 236.456C141.654 236.093 141.227 235.912 140.694 235.912C140.288 235.912 139.931 236.008 139.622 236.2C139.312 236.392 139.078 236.643 138.918 236.952L137.462 236.712C137.675 236.051 138.086 235.528 138.694 235.144C139.302 234.76 139.995 234.568 140.774 234.568ZM140.246 241.832C140.918 241.832 141.462 241.613 141.878 241.176C142.304 240.728 142.518 240.115 142.518 239.336V239.24H140.694C139.307 239.24 138.614 239.656 138.614 240.488C138.614 240.893 138.763 241.219 139.062 241.464C139.36 241.709 139.755 241.832 140.246 241.832ZM151.078 243V234.664H148.87V233.16H150.39C150.603 233.16 150.768 233.096 150.886 232.968C151.014 232.84 151.078 232.669 151.078 232.456V231.72H152.726V243H151.078ZM163.101 243.16C162.258 243.16 161.506 242.979 160.845 242.616C160.183 242.253 159.666 241.747 159.293 241.096C158.919 240.445 158.733 239.704 158.733 238.872C158.733 238.04 158.919 237.299 159.293 236.648C159.666 235.997 160.183 235.491 160.845 235.128C161.506 234.755 162.258 234.568 163.101 234.568C163.943 234.568 164.695 234.755 165.357 235.128C166.018 235.491 166.535 235.997 166.909 236.648C167.282 237.299 167.469 238.04 167.469 238.872C167.469 239.704 167.282 240.445 166.909 241.096C166.535 241.747 166.018 242.253 165.357 242.616C164.695 242.979 163.943 243.16 163.101 243.16ZM163.101 241.72C163.911 241.72 164.567 241.459 165.069 240.936C165.581 240.413 165.837 239.725 165.837 238.872C165.837 238.019 165.581 237.331 165.069 236.808C164.567 236.275 163.911 236.008 163.101 236.008C162.29 236.008 161.634 236.275 161.133 236.808C160.631 237.331 160.381 238.019 160.381 238.872C160.381 239.715 160.631 240.403 161.133 240.936C161.634 241.459 162.29 241.72 163.101 241.72ZM172.47 243H170.902V236.168H168.038V234.728H175.334V236.168H172.47V243ZM181.738 239.992C181.482 240.109 181.178 240.2 180.826 240.264C180.474 240.328 180.127 240.36 179.786 240.36C178.794 240.36 178.031 240.083 177.498 239.528C176.964 238.973 176.698 238.189 176.698 237.176V234.728H178.266V237.176C178.266 238.36 178.836 238.952 179.978 238.952C180.671 238.952 181.258 238.829 181.738 238.584V234.728H183.306V243H181.738V239.992ZM193.463 238.808C193.463 239.021 193.457 239.187 193.447 239.304H186.615C186.7 240.04 186.988 240.627 187.479 241.064C187.969 241.501 188.593 241.72 189.351 241.72C189.873 241.72 190.337 241.619 190.743 241.416C191.159 241.203 191.473 240.925 191.687 240.584L193.159 240.824C192.839 241.571 192.321 242.147 191.607 242.552C190.903 242.957 190.119 243.16 189.255 243.16C188.433 243.16 187.697 242.979 187.047 242.616C186.396 242.243 185.889 241.731 185.527 241.08C185.164 240.429 184.983 239.693 184.983 238.872C184.983 238.04 185.164 237.299 185.527 236.648C185.889 235.997 186.391 235.491 187.031 235.128C187.671 234.755 188.401 234.568 189.223 234.568C190.033 234.568 190.759 234.755 191.399 235.128C192.049 235.491 192.556 235.997 192.919 236.648C193.281 237.288 193.463 238.008 193.463 238.808ZM189.223 235.96C188.593 235.96 188.049 236.147 187.591 236.52C187.143 236.893 186.844 237.395 186.695 238.024H191.751C191.612 237.405 191.313 236.909 190.855 236.536C190.407 236.152 189.863 235.96 189.223 235.96ZM187.559 233.416C187.26 233.416 187.015 233.325 186.823 233.144C186.631 232.952 186.535 232.712 186.535 232.424C186.535 232.136 186.631 231.901 186.823 231.72C187.015 231.528 187.26 231.432 187.559 231.432C187.836 231.432 188.071 231.528 188.263 231.72C188.455 231.901 188.551 232.136 188.551 232.424C188.551 232.712 188.455 232.952 188.263 233.144C188.071 233.325 187.836 233.416 187.559 233.416ZM190.871 233.416C190.572 233.416 190.327 233.325 190.135 233.144C189.953 232.952 189.863 232.712 189.863 232.424C189.863 232.136 189.953 231.901 190.135 231.72C190.327 231.528 190.572 231.432 190.871 231.432C191.159 231.432 191.399 231.528 191.591 231.72C191.783 231.901 191.879 232.136 191.879 232.424C191.879 232.712 191.783 232.952 191.591 233.144C191.399 233.325 191.159 233.416 190.871 233.416ZM198.298 243H196.73V236.168H193.866V234.728H201.162V236.168H198.298V243Z" fill="white"/>
<path d="M235.241 195.776C235.678 195.904 236.041 196.139 236.329 196.48C236.617 196.811 236.761 197.221 236.761 197.712C236.761 198.171 236.627 198.587 236.361 198.96C236.094 199.323 235.71 199.616 235.209 199.84C234.718 200.053 234.147 200.16 233.497 200.16C232.622 200.16 231.87 199.957 231.241 199.552C230.611 199.136 230.195 198.581 229.993 197.888L231.449 197.648C231.801 198.416 232.478 198.8 233.481 198.8C234.035 198.8 234.457 198.699 234.745 198.496C235.043 198.283 235.193 197.989 235.193 197.616C235.193 197.285 235.054 197.019 234.777 196.816C234.51 196.613 234.078 196.512 233.481 196.512H232.393V195.136H233.481C233.993 195.136 234.382 195.04 234.649 194.848C234.926 194.656 235.065 194.4 235.065 194.08C235.065 193.739 234.915 193.461 234.617 193.248C234.329 193.035 233.971 192.928 233.545 192.928C233.129 192.928 232.755 193.029 232.425 193.232C232.094 193.435 231.843 193.712 231.673 194.064L230.217 193.808C230.462 193.093 230.883 192.544 231.481 192.16C232.089 191.765 232.793 191.568 233.593 191.568C234.169 191.568 234.686 191.669 235.145 191.872C235.614 192.075 235.977 192.357 236.233 192.72C236.499 193.083 236.633 193.488 236.633 193.936C236.633 194.395 236.505 194.784 236.249 195.104C235.993 195.424 235.657 195.648 235.241 195.776ZM241.867 191.568C242.891 191.568 243.697 191.904 244.283 192.576C244.881 193.237 245.179 194.165 245.179 195.36V200H244.059L243.691 198.704C243.425 199.12 243.067 199.467 242.619 199.744C242.171 200.021 241.633 200.16 241.003 200.16C240.449 200.16 239.953 200.048 239.515 199.824C239.078 199.6 238.737 199.291 238.491 198.896C238.246 198.491 238.123 198.037 238.123 197.536C238.123 196.757 238.433 196.133 239.051 195.664C239.67 195.195 240.566 194.96 241.739 194.96H243.611C243.569 194.309 243.387 193.808 243.067 193.456C242.747 193.093 242.321 192.912 241.787 192.912C241.382 192.912 241.025 193.008 240.715 193.2C240.406 193.392 240.171 193.643 240.011 193.952L238.555 193.712C238.769 193.051 239.179 192.528 239.787 192.144C240.395 191.76 241.089 191.568 241.867 191.568ZM241.339 198.832C242.011 198.832 242.555 198.613 242.971 198.176C243.398 197.728 243.611 197.115 243.611 196.336V196.24H241.787C240.401 196.24 239.707 196.656 239.707 197.488C239.707 197.893 239.857 198.219 240.155 198.464C240.454 198.709 240.849 198.832 241.339 198.832ZM250.8 200V198.064L255.024 194.192C255.461 193.787 255.786 193.408 256 193.056C256.213 192.693 256.32 192.304 256.32 191.888C256.32 191.344 256.149 190.907 255.808 190.576C255.466 190.245 255.024 190.08 254.48 190.08C253.456 190.08 252.709 190.725 252.24 192.016L250.688 191.76C250.965 190.789 251.434 190.016 252.096 189.44C252.757 188.853 253.573 188.56 254.544 188.56C255.216 188.56 255.818 188.704 256.352 188.992C256.885 189.269 257.301 189.664 257.6 190.176C257.898 190.677 258.048 191.243 258.048 191.872C258.048 192.523 257.882 193.104 257.552 193.616C257.232 194.128 256.73 194.699 256.048 195.328L252.88 198.224V198.464L258.128 198.416V200H250.8ZM267.679 200.16C266.836 200.16 266.084 199.979 265.423 199.616C264.761 199.253 264.244 198.747 263.871 198.096C263.497 197.445 263.311 196.704 263.311 195.872C263.311 195.04 263.497 194.299 263.871 193.648C264.244 192.997 264.761 192.491 265.423 192.128C266.084 191.755 266.836 191.568 267.679 191.568C268.521 191.568 269.273 191.755 269.935 192.128C270.596 192.491 271.113 192.997 271.487 193.648C271.86 194.299 272.047 195.04 272.047 195.872C272.047 196.704 271.86 197.445 271.487 198.096C271.113 198.747 270.596 199.253 269.935 199.616C269.273 199.979 268.521 200.16 267.679 200.16ZM267.679 198.72C268.489 198.72 269.145 198.459 269.647 197.936C270.159 197.413 270.415 196.725 270.415 195.872C270.415 195.019 270.159 194.331 269.647 193.808C269.145 193.275 268.489 193.008 267.679 193.008C266.868 193.008 266.212 193.275 265.711 193.808C265.209 194.331 264.959 195.019 264.959 195.872C264.959 196.715 265.209 197.403 265.711 197.936C266.212 198.459 266.868 198.72 267.679 198.72ZM277.048 200H275.48V193.168H272.616V191.728H279.912V193.168H277.048V200ZM286.316 196.992C286.06 197.109 285.756 197.2 285.404 197.264C285.052 197.328 284.705 197.36 284.364 197.36C283.372 197.36 282.609 197.083 282.076 196.528C281.542 195.973 281.276 195.189 281.276 194.176V191.728H282.844V194.176C282.844 195.36 283.414 195.952 284.556 195.952C285.249 195.952 285.836 195.829 286.316 195.584V191.728H287.884V200H286.316V196.992ZM298.041 195.808C298.041 196.021 298.035 196.187 298.025 196.304H291.193C291.278 197.04 291.566 197.627 292.057 198.064C292.547 198.501 293.171 198.72 293.929 198.72C294.451 198.72 294.915 198.619 295.321 198.416C295.737 198.203 296.051 197.925 296.265 197.584L297.737 197.824C297.417 198.571 296.899 199.147 296.185 199.552C295.481 199.957 294.697 200.16 293.833 200.16C293.011 200.16 292.275 199.979 291.625 199.616C290.974 199.243 290.467 198.731 290.105 198.08C289.742 197.429 289.561 196.693 289.561 195.872C289.561 195.04 289.742 194.299 290.105 193.648C290.467 192.997 290.969 192.491 291.609 192.128C292.249 191.755 292.979 191.568 293.801 191.568C294.611 191.568 295.337 191.755 295.977 192.128C296.627 192.491 297.134 192.997 297.497 193.648C297.859 194.288 298.041 195.008 298.041 195.808ZM293.801 192.96C293.171 192.96 292.627 193.147 292.169 193.52C291.721 193.893 291.422 194.395 291.273 195.024H296.329C296.19 194.405 295.891 193.909 295.433 193.536C294.985 193.152 294.441 192.96 293.801 192.96ZM292.137 190.416C291.838 190.416 291.593 190.325 291.401 190.144C291.209 189.952 291.113 189.712 291.113 189.424C291.113 189.136 291.209 188.901 291.401 188.72C291.593 188.528 291.838 188.432 292.137 188.432C292.414 188.432 292.649 188.528 292.841 188.72C293.033 188.901 293.129 189.136 293.129 189.424C293.129 189.712 293.033 189.952 292.841 190.144C292.649 190.325 292.414 190.416 292.137 190.416ZM295.449 190.416C295.15 190.416 294.905 190.325 294.713 190.144C294.531 189.952 294.441 189.712 294.441 189.424C294.441 189.136 294.531 188.901 294.713 188.72C294.905 188.528 295.15 188.432 295.449 188.432C295.737 188.432 295.977 188.528 296.169 188.72C296.361 188.901 296.457 189.136 296.457 189.424C296.457 189.712 296.361 189.952 296.169 190.144C295.977 190.325 295.737 190.416 295.449 190.416ZM302.876 200H301.308V193.168H298.444V191.728H305.74V193.168H302.876V200ZM310.055 191.568C311.079 191.568 311.884 191.904 312.471 192.576C313.068 193.237 313.367 194.165 313.367 195.36V200H312.247L311.879 198.704C311.612 199.12 311.255 199.467 310.807 199.744C310.359 200.021 309.82 200.16 309.191 200.16C308.636 200.16 308.14 200.048 307.703 199.824C307.265 199.6 306.924 199.291 306.679 198.896C306.433 198.491 306.311 198.037 306.311 197.536C306.311 196.757 306.62 196.133 307.239 195.664C307.857 195.195 308.753 194.96 309.927 194.96H311.799C311.756 194.309 311.575 193.808 311.255 193.456C310.935 193.093 310.508 192.912 309.975 192.912C309.569 192.912 309.212 193.008 308.903 193.2C308.593 193.392 308.359 193.643 308.199 193.952L306.743 193.712C306.956 193.051 307.367 192.528 307.975 192.144C308.583 191.76 309.276 191.568 310.055 191.568ZM309.527 198.832C310.199 198.832 310.743 198.613 311.159 198.176C311.585 197.728 311.799 197.115 311.799 196.336V196.24H309.975C308.588 196.24 307.895 196.656 307.895 197.488C307.895 197.893 308.044 198.219 308.343 198.464C308.641 198.709 309.036 198.832 309.527 198.832Z" fill="white"/>
<path d="M342.741 151.776C343.178 151.904 343.541 152.139 343.829 152.48C344.117 152.811 344.261 153.221 344.261 153.712C344.261 154.171 344.127 154.587 343.861 154.96C343.594 155.323 343.21 155.616 342.709 155.84C342.218 156.053 341.647 156.16 340.997 156.16C340.122 156.16 339.37 155.957 338.741 155.552C338.111 155.136 337.695 154.581 337.493 153.888L338.949 153.648C339.301 154.416 339.978 154.8 340.981 154.8C341.535 154.8 341.957 154.699 342.245 154.496C342.543 154.283 342.693 153.989 342.693 153.616C342.693 153.285 342.554 153.019 342.277 152.816C342.01 152.613 341.578 152.512 340.981 152.512H339.893V151.136H340.981C341.493 151.136 341.882 151.04 342.149 150.848C342.426 150.656 342.565 150.4 342.565 150.08C342.565 149.739 342.415 149.461 342.117 149.248C341.829 149.035 341.471 148.928 341.045 148.928C340.629 148.928 340.255 149.029 339.925 149.232C339.594 149.435 339.343 149.712 339.173 150.064L337.717 149.808C337.962 149.093 338.383 148.544 338.981 148.16C339.589 147.765 340.293 147.568 341.093 147.568C341.669 147.568 342.186 147.669 342.645 147.872C343.114 148.075 343.477 148.357 343.733 148.72C343.999 149.083 344.133 149.488 344.133 149.936C344.133 150.395 344.005 150.784 343.749 151.104C343.493 151.424 343.157 151.648 342.741 151.776ZM349.367 147.568C350.391 147.568 351.197 147.904 351.783 148.576C352.381 149.237 352.679 150.165 352.679 151.36V156H351.559L351.191 154.704C350.925 155.12 350.567 155.467 350.119 155.744C349.671 156.021 349.133 156.16 348.503 156.16C347.949 156.16 347.453 156.048 347.015 155.824C346.578 155.6 346.237 155.291 345.991 154.896C345.746 154.491 345.623 154.037 345.623 153.536C345.623 152.757 345.933 152.133 346.551 151.664C347.17 151.195 348.066 150.96 349.239 150.96H351.111C351.069 150.309 350.887 149.808 350.567 149.456C350.247 149.093 349.821 148.912 349.287 148.912C348.882 148.912 348.525 149.008 348.215 149.2C347.906 149.392 347.671 149.643 347.511 149.952L346.055 149.712C346.269 149.051 346.679 148.528 347.287 148.144C347.895 147.76 348.589 147.568 349.367 147.568ZM348.839 154.832C349.511 154.832 350.055 154.613 350.471 154.176C350.898 153.728 351.111 153.115 351.111 152.336V152.24H349.287C347.901 152.24 347.207 152.656 347.207 153.488C347.207 153.893 347.357 154.219 347.655 154.464C347.954 154.709 348.349 154.832 348.839 154.832ZM363.74 150.16C364.273 150.363 364.721 150.688 365.084 151.136C365.446 151.584 365.628 152.149 365.628 152.832C365.628 153.472 365.468 154.048 365.148 154.56C364.828 155.061 364.38 155.456 363.804 155.744C363.228 156.021 362.572 156.16 361.836 156.16C360.812 156.16 359.942 155.888 359.228 155.344C358.513 154.8 358.033 154.08 357.788 153.184L359.372 152.912C359.628 153.488 359.953 153.92 360.348 154.208C360.753 154.496 361.244 154.64 361.82 154.64C362.449 154.64 362.961 154.469 363.356 154.128C363.761 153.787 363.964 153.339 363.964 152.784C363.964 152.251 363.766 151.819 363.372 151.488C362.988 151.147 362.476 150.976 361.836 150.976H360.572V149.52H361.836C362.401 149.52 362.865 149.36 363.228 149.04C363.59 148.72 363.772 148.304 363.772 147.792C363.772 147.28 363.59 146.869 363.228 146.56C362.865 146.24 362.396 146.08 361.82 146.08C361.318 146.08 360.876 146.219 360.492 146.496C360.118 146.763 359.83 147.136 359.628 147.616L358.076 147.36C358.396 146.453 358.881 145.76 359.532 145.28C360.193 144.8 360.972 144.56 361.868 144.56C362.561 144.56 363.174 144.693 363.708 144.96C364.252 145.227 364.673 145.6 364.972 146.08C365.281 146.549 365.436 147.083 365.436 147.68C365.436 148.277 365.276 148.789 364.956 149.216C364.636 149.643 364.23 149.957 363.74 150.16ZM375.179 156.16C374.336 156.16 373.584 155.979 372.923 155.616C372.261 155.253 371.744 154.747 371.371 154.096C370.997 153.445 370.811 152.704 370.811 151.872C370.811 151.04 370.997 150.299 371.371 149.648C371.744 148.997 372.261 148.491 372.923 148.128C373.584 147.755 374.336 147.568 375.179 147.568C376.021 147.568 376.773 147.755 377.435 148.128C378.096 148.491 378.613 148.997 378.987 149.648C379.36 150.299 379.547 151.04 379.547 151.872C379.547 152.704 379.36 153.445 378.987 154.096C378.613 154.747 378.096 155.253 377.435 155.616C376.773 155.979 376.021 156.16 375.179 156.16ZM375.179 154.72C375.989 154.72 376.645 154.459 377.147 153.936C377.659 153.413 377.915 152.725 377.915 151.872C377.915 151.019 377.659 150.331 377.147 149.808C376.645 149.275 375.989 149.008 375.179 149.008C374.368 149.008 373.712 149.275 373.211 149.808C372.709 150.331 372.459 151.019 372.459 151.872C372.459 152.715 372.709 153.403 373.211 153.936C373.712 154.459 374.368 154.72 375.179 154.72ZM384.548 156H382.98V149.168H380.116V147.728H387.412V149.168H384.548V156ZM393.816 152.992C393.56 153.109 393.256 153.2 392.904 153.264C392.552 153.328 392.205 153.36 391.864 153.36C390.872 153.36 390.109 153.083 389.576 152.528C389.042 151.973 388.776 151.189 388.776 150.176V147.728H390.344V150.176C390.344 151.36 390.914 151.952 392.056 151.952C392.749 151.952 393.336 151.829 393.816 151.584V147.728H395.384V156H393.816V152.992ZM405.541 151.808C405.541 152.021 405.535 152.187 405.525 152.304H398.693C398.778 153.04 399.066 153.627 399.557 154.064C400.047 154.501 400.671 154.72 401.429 154.72C401.951 154.72 402.415 154.619 402.821 154.416C403.237 154.203 403.551 153.925 403.765 153.584L405.237 153.824C404.917 154.571 404.399 155.147 403.685 155.552C402.981 155.957 402.197 156.16 401.333 156.16C400.511 156.16 399.775 155.979 399.125 155.616C398.474 155.243 397.967 154.731 397.605 154.08C397.242 153.429 397.061 152.693 397.061 151.872C397.061 151.04 397.242 150.299 397.605 149.648C397.967 148.997 398.469 148.491 399.109 148.128C399.749 147.755 400.479 147.568 401.301 147.568C402.111 147.568 402.837 147.755 403.477 148.128C404.127 148.491 404.634 148.997 404.997 149.648C405.359 150.288 405.541 151.008 405.541 151.808ZM401.301 148.96C400.671 148.96 400.127 149.147 399.669 149.52C399.221 149.893 398.922 150.395 398.773 151.024H403.829C403.69 150.405 403.391 149.909 402.933 149.536C402.485 149.152 401.941 148.96 401.301 148.96ZM399.637 146.416C399.338 146.416 399.093 146.325 398.901 146.144C398.709 145.952 398.613 145.712 398.613 145.424C398.613 145.136 398.709 144.901 398.901 144.72C399.093 144.528 399.338 144.432 399.637 144.432C399.914 144.432 400.149 144.528 400.341 144.72C400.533 144.901 400.629 145.136 400.629 145.424C400.629 145.712 400.533 145.952 400.341 146.144C400.149 146.325 399.914 146.416 399.637 146.416ZM402.949 146.416C402.65 146.416 402.405 146.325 402.213 146.144C402.031 145.952 401.941 145.712 401.941 145.424C401.941 145.136 402.031 144.901 402.213 144.72C402.405 144.528 402.65 144.432 402.949 144.432C403.237 144.432 403.477 144.528 403.669 144.72C403.861 144.901 403.957 145.136 403.957 145.424C403.957 145.712 403.861 145.952 403.669 146.144C403.477 146.325 403.237 146.416 402.949 146.416ZM410.376 156H408.808V149.168H405.944V147.728H413.24V149.168H410.376V156ZM417.555 147.568C418.579 147.568 419.384 147.904 419.971 148.576C420.568 149.237 420.867 150.165 420.867 151.36V156H419.747L419.379 154.704C419.112 155.12 418.755 155.467 418.307 155.744C417.859 156.021 417.32 156.16 416.691 156.16C416.136 156.16 415.64 156.048 415.203 155.824C414.765 155.6 414.424 155.291 414.179 154.896C413.933 154.491 413.811 154.037 413.811 153.536C413.811 152.757 414.12 152.133 414.739 151.664C415.357 151.195 416.253 150.96 417.427 150.96H419.299C419.256 150.309 419.075 149.808 418.755 149.456C418.435 149.093 418.008 148.912 417.475 148.912C417.069 148.912 416.712 149.008 416.403 149.2C416.093 149.392 415.859 149.643 415.699 149.952L414.243 149.712C414.456 149.051 414.867 148.528 415.475 148.144C416.083 147.76 416.776 147.568 417.555 147.568ZM417.027 154.832C417.699 154.832 418.243 154.613 418.659 154.176C419.085 153.728 419.299 153.115 419.299 152.336V152.24H417.475C416.088 152.24 415.395 152.656 415.395 153.488C415.395 153.893 415.544 154.219 415.843 154.464C416.141 154.709 416.536 154.832 417.027 154.832Z" fill="white"/>
<path d="M450.233 108.776C450.67 108.904 451.033 109.139 451.321 109.48C451.609 109.811 451.753 110.221 451.753 110.712C451.753 111.171 451.619 111.587 451.353 111.96C451.086 112.323 450.702 112.616 450.201 112.84C449.71 113.053 449.139 113.16 448.489 113.16C447.614 113.16 446.862 112.957 446.233 112.552C445.603 112.136 445.187 111.581 444.985 110.888L446.441 110.648C446.793 111.416 447.47 111.8 448.473 111.8C449.027 111.8 449.449 111.699 449.737 111.496C450.035 111.283 450.185 110.989 450.185 110.616C450.185 110.285 450.046 110.019 449.769 109.816C449.502 109.613 449.07 109.512 448.473 109.512H447.385V108.136H448.473C448.985 108.136 449.374 108.04 449.641 107.848C449.918 107.656 450.057 107.4 450.057 107.08C450.057 106.739 449.907 106.461 449.609 106.248C449.321 106.035 448.963 105.928 448.537 105.928C448.121 105.928 447.747 106.029 447.417 106.232C447.086 106.435 446.835 106.712 446.665 107.064L445.209 106.808C445.454 106.093 445.875 105.544 446.473 105.16C447.081 104.765 447.785 104.568 448.585 104.568C449.161 104.568 449.678 104.669 450.137 104.872C450.606 105.075 450.969 105.357 451.225 105.72C451.491 106.083 451.625 106.488 451.625 106.936C451.625 107.395 451.497 107.784 451.241 108.104C450.985 108.424 450.649 108.648 450.233 108.776ZM456.859 104.568C457.883 104.568 458.689 104.904 459.275 105.576C459.873 106.237 460.171 107.165 460.171 108.36V113H459.051L458.683 111.704C458.417 112.12 458.059 112.467 457.611 112.744C457.163 113.021 456.625 113.16 455.995 113.16C455.441 113.16 454.945 113.048 454.507 112.824C454.07 112.6 453.729 112.291 453.483 111.896C453.238 111.491 453.115 111.037 453.115 110.536C453.115 109.757 453.425 109.133 454.043 108.664C454.662 108.195 455.558 107.96 456.731 107.96H458.603C458.561 107.309 458.379 106.808 458.059 106.456C457.739 106.093 457.313 105.912 456.779 105.912C456.374 105.912 456.017 106.008 455.707 106.2C455.398 106.392 455.163 106.643 455.003 106.952L453.547 106.712C453.761 106.051 454.171 105.528 454.779 105.144C455.387 104.76 456.081 104.568 456.859 104.568ZM456.331 111.832C457.003 111.832 457.547 111.613 457.963 111.176C458.39 110.728 458.603 110.115 458.603 109.336V109.24H456.779C455.393 109.24 454.699 109.656 454.699 110.488C454.699 110.893 454.849 111.219 455.147 111.464C455.446 111.709 455.841 111.832 456.331 111.832ZM472.123 113H470.523V110.584H465.035V109L469.707 101.72H472.123V109.064H473.531V110.584H472.123V113ZM470.283 103.416L466.747 109.064H470.523V103.416H470.283ZM482.687 113.16C481.844 113.16 481.092 112.979 480.431 112.616C479.769 112.253 479.252 111.747 478.879 111.096C478.505 110.445 478.319 109.704 478.319 108.872C478.319 108.04 478.505 107.299 478.879 106.648C479.252 105.997 479.769 105.491 480.431 105.128C481.092 104.755 481.844 104.568 482.687 104.568C483.529 104.568 484.281 104.755 484.943 105.128C485.604 105.491 486.121 105.997 486.495 106.648C486.868 107.299 487.055 108.04 487.055 108.872C487.055 109.704 486.868 110.445 486.495 111.096C486.121 111.747 485.604 112.253 484.943 112.616C484.281 112.979 483.529 113.16 482.687 113.16ZM482.687 111.72C483.497 111.72 484.153 111.459 484.655 110.936C485.167 110.413 485.423 109.725 485.423 108.872C485.423 108.019 485.167 107.331 484.655 106.808C484.153 106.275 483.497 106.008 482.687 106.008C481.876 106.008 481.22 106.275 480.719 106.808C480.217 107.331 479.967 108.019 479.967 108.872C479.967 109.715 480.217 110.403 480.719 110.936C481.22 111.459 481.876 111.72 482.687 111.72ZM492.056 113H490.488V106.168H487.624V104.728H494.92V106.168H492.056V113ZM501.324 109.992C501.068 110.109 500.764 110.2 500.412 110.264C500.06 110.328 499.713 110.36 499.372 110.36C498.38 110.36 497.617 110.083 497.084 109.528C496.55 108.973 496.284 108.189 496.284 107.176V104.728H497.852V107.176C497.852 108.36 498.422 108.952 499.564 108.952C500.257 108.952 500.844 108.829 501.324 108.584V104.728H502.892V113H501.324V109.992ZM513.049 108.808C513.049 109.021 513.043 109.187 513.033 109.304H506.201C506.286 110.04 506.574 110.627 507.065 111.064C507.555 111.501 508.179 111.72 508.937 111.72C509.459 111.72 509.923 111.619 510.329 111.416C510.745 111.203 511.059 110.925 511.273 110.584L512.745 110.824C512.425 111.571 511.907 112.147 511.193 112.552C510.489 112.957 509.705 113.16 508.841 113.16C508.019 113.16 507.283 112.979 506.633 112.616C505.982 112.243 505.475 111.731 505.113 111.08C504.75 110.429 504.569 109.693 504.569 108.872C504.569 108.04 504.75 107.299 505.113 106.648C505.475 105.997 505.977 105.491 506.617 105.128C507.257 104.755 507.987 104.568 508.809 104.568C509.619 104.568 510.345 104.755 510.985 105.128C511.635 105.491 512.142 105.997 512.505 106.648C512.867 107.288 513.049 108.008 513.049 108.808ZM508.809 105.96C508.179 105.96 507.635 106.147 507.177 106.52C506.729 106.893 506.43 107.395 506.281 108.024H511.337C511.198 107.405 510.899 106.909 510.441 106.536C509.993 106.152 509.449 105.96 508.809 105.96ZM507.145 103.416C506.846 103.416 506.601 103.325 506.409 103.144C506.217 102.952 506.121 102.712 506.121 102.424C506.121 102.136 506.217 101.901 506.409 101.72C506.601 101.528 506.846 101.432 507.145 101.432C507.422 101.432 507.657 101.528 507.849 101.72C508.041 101.901 508.137 102.136 508.137 102.424C508.137 102.712 508.041 102.952 507.849 103.144C507.657 103.325 507.422 103.416 507.145 103.416ZM510.457 103.416C510.158 103.416 509.913 103.325 509.721 103.144C509.539 102.952 509.449 102.712 509.449 102.424C509.449 102.136 509.539 101.901 509.721 101.72C509.913 101.528 510.158 101.432 510.457 101.432C510.745 101.432 510.985 101.528 511.177 101.72C511.369 101.901 511.465 102.136 511.465 102.424C511.465 102.712 511.369 102.952 511.177 103.144C510.985 103.325 510.745 103.416 510.457 103.416ZM517.884 113H516.316V106.168H513.452V104.728H520.748V106.168H517.884V113ZM525.063 104.568C526.087 104.568 526.892 104.904 527.479 105.576C528.076 106.237 528.375 107.165 528.375 108.36V113H527.255L526.887 111.704C526.62 112.12 526.263 112.467 525.815 112.744C525.367 113.021 524.828 113.16 524.199 113.16C523.644 113.16 523.148 113.048 522.711 112.824C522.273 112.6 521.932 112.291 521.687 111.896C521.441 111.491 521.319 111.037 521.319 110.536C521.319 109.757 521.628 109.133 522.247 108.664C522.865 108.195 523.761 107.96 524.935 107.96H526.807C526.764 107.309 526.583 106.808 526.263 106.456C525.943 106.093 525.516 105.912 524.983 105.912C524.577 105.912 524.22 106.008 523.911 106.2C523.601 106.392 523.367 106.643 523.207 106.952L521.751 106.712C521.964 106.051 522.375 105.528 522.983 105.144C523.591 104.76 524.284 104.568 525.063 104.568ZM524.535 111.832C525.207 111.832 525.751 111.613 526.167 111.176C526.593 110.728 526.807 110.115 526.807 109.336V109.24H524.983C523.596 109.24 522.903 109.656 522.903 110.488C522.903 110.893 523.052 111.219 523.351 111.464C523.649 111.709 524.044 111.832 524.535 111.832Z" fill="white"/>
<path d="M550.873 65.776C551.311 65.904 551.673 66.1387 551.961 66.48C552.249 66.8107 552.393 67.2213 552.393 67.712C552.393 68.1707 552.26 68.5867 551.993 68.96C551.727 69.3227 551.343 69.616 550.841 69.84C550.351 70.0533 549.78 70.16 549.129 70.16C548.255 70.16 547.503 69.9573 546.873 69.552C546.244 69.136 545.828 68.5813 545.625 67.888L547.081 67.648C547.433 68.416 548.111 68.8 549.113 68.8C549.668 68.8 550.089 68.6987 550.377 68.496C550.676 68.2827 550.825 67.9893 550.825 67.616C550.825 67.2853 550.687 67.0187 550.409 66.816C550.143 66.6133 549.711 66.512 549.113 66.512H548.025V65.136H549.113C549.625 65.136 550.015 65.04 550.281 64.848C550.559 64.656 550.697 64.4 550.697 64.08C550.697 63.7387 550.548 63.4613 550.249 63.248C549.961 63.0347 549.604 62.928 549.177 62.928C548.761 62.928 548.388 63.0293 548.057 63.232C547.727 63.4347 547.476 63.712 547.305 64.064L545.849 63.808C546.095 63.0933 546.516 62.544 547.113 62.16C547.721 61.7653 548.425 61.568 549.225 61.568C549.801 61.568 550.319 61.6693 550.777 61.872C551.247 62.0747 551.609 62.3573 551.865 62.72C552.132 63.0827 552.265 63.488 552.265 63.936C552.265 64.3947 552.137 64.784 551.881 65.104C551.625 65.424 551.289 65.648 550.873 65.776ZM557.5 61.568C558.524 61.568 559.329 61.904 559.916 62.576C560.513 63.2373 560.812 64.1653 560.812 65.36V70H559.692L559.324 68.704C559.057 69.12 558.7 69.4667 558.252 69.744C557.804 70.0213 557.265 70.16 556.636 70.16C556.081 70.16 555.585 70.048 555.148 69.824C554.711 69.6 554.369 69.2907 554.124 68.896C553.879 68.4907 553.756 68.0373 553.756 67.536C553.756 66.7573 554.065 66.1333 554.684 65.664C555.303 65.1947 556.199 64.96 557.372 64.96H559.244C559.201 64.3093 559.02 63.808 558.7 63.456C558.38 63.0933 557.953 62.912 557.42 62.912C557.015 62.912 556.657 63.008 556.348 63.2C556.039 63.392 555.804 63.6427 555.644 63.952L554.188 63.712C554.401 63.0507 554.812 62.528 555.42 62.144C556.028 61.76 556.721 61.568 557.5 61.568ZM556.972 68.832C557.644 68.832 558.188 68.6133 558.604 68.176C559.031 67.728 559.244 67.1147 559.244 66.336V66.24H557.42C556.033 66.24 555.34 66.656 555.34 67.488C555.34 67.8933 555.489 68.2187 555.788 68.464C556.087 68.7093 556.481 68.832 556.972 68.832ZM570.864 62.432C571.568 62.432 572.198 62.5973 572.752 62.928C573.307 63.2587 573.739 63.7173 574.048 64.304C574.358 64.8907 574.512 65.552 574.512 66.288C574.512 67.0347 574.342 67.7013 574 68.288C573.67 68.8747 573.206 69.3333 572.608 69.664C572.011 69.9947 571.328 70.16 570.56 70.16C569.558 70.16 568.699 69.888 567.984 69.344C567.28 68.8 566.806 68.08 566.56 67.184L568.144 66.912C568.39 67.4773 568.71 67.9093 569.104 68.208C569.51 68.496 569.984 68.64 570.528 68.64C571.211 68.64 571.76 68.4213 572.176 67.984C572.603 67.5467 572.816 66.9813 572.816 66.288C572.816 65.5947 572.608 65.0347 572.192 64.608C571.787 64.1707 571.259 63.952 570.608 63.952C570.139 63.952 569.718 64.064 569.344 64.288C568.982 64.5013 568.694 64.7787 568.48 65.12H566.88L567.536 58.72H574.016V60.24H568.928L568.64 63.168C569.248 62.6773 569.99 62.432 570.864 62.432ZM584.077 70.16C583.235 70.16 582.483 69.9787 581.821 69.616C581.16 69.2533 580.643 68.7467 580.269 68.096C579.896 67.4453 579.709 66.704 579.709 65.872C579.709 65.04 579.896 64.2987 580.269 63.648C580.643 62.9973 581.16 62.4907 581.821 62.128C582.483 61.7547 583.235 61.568 584.077 61.568C584.92 61.568 585.672 61.7547 586.333 62.128C586.995 62.4907 587.512 62.9973 587.885 63.648C588.259 64.2987 588.445 65.04 588.445 65.872C588.445 66.704 588.259 67.4453 587.885 68.096C587.512 68.7467 586.995 69.2533 586.333 69.616C585.672 69.9787 584.92 70.16 584.077 70.16ZM584.077 68.72C584.888 68.72 585.544 68.4587 586.045 67.936C586.557 67.4133 586.813 66.7253 586.813 65.872C586.813 65.0187 586.557 64.3307 586.045 63.808C585.544 63.2747 584.888 63.008 584.077 63.008C583.267 63.008 582.611 63.2747 582.109 63.808C581.608 64.3307 581.357 65.0187 581.357 65.872C581.357 66.7147 581.608 67.4027 582.109 67.936C582.611 68.4587 583.267 68.72 584.077 68.72ZM593.446 70H591.878V63.168H589.014V61.728H596.31V63.168H593.446V70ZM602.714 66.992C602.458 67.1093 602.154 67.2 601.802 67.264C601.45 67.328 601.104 67.36 600.762 67.36C599.77 67.36 599.008 67.0827 598.474 66.528C597.941 65.9733 597.674 65.1893 597.674 64.176V61.728H599.242V64.176C599.242 65.36 599.813 65.952 600.954 65.952C601.648 65.952 602.234 65.8293 602.714 65.584V61.728H604.282V70H602.714V66.992ZM614.439 65.808C614.439 66.0213 614.434 66.1867 614.423 66.304H607.591C607.677 67.04 607.965 67.6267 608.455 68.064C608.946 68.5013 609.57 68.72 610.327 68.72C610.85 68.72 611.314 68.6187 611.719 68.416C612.135 68.2027 612.45 67.9253 612.663 67.584L614.135 67.824C613.815 68.5707 613.298 69.1467 612.583 69.552C611.879 69.9573 611.095 70.16 610.231 70.16C609.41 70.16 608.674 69.9787 608.023 69.616C607.373 69.2427 606.866 68.7307 606.503 68.08C606.141 67.4293 605.959 66.6933 605.959 65.872C605.959 65.04 606.141 64.2987 606.503 63.648C606.866 62.9973 607.367 62.4907 608.007 62.128C608.647 61.7547 609.378 61.568 610.199 61.568C611.01 61.568 611.735 61.7547 612.375 62.128C613.026 62.4907 613.533 62.9973 613.895 63.648C614.258 64.288 614.439 65.008 614.439 65.808ZM610.199 62.96C609.57 62.96 609.026 63.1467 608.567 63.52C608.119 63.8933 607.821 64.3947 607.671 65.024H612.727C612.589 64.4053 612.29 63.9093 611.831 63.536C611.383 63.152 610.839 62.96 610.199 62.96ZM608.535 60.416C608.237 60.416 607.991 60.3253 607.799 60.144C607.607 59.952 607.511 59.712 607.511 59.424C607.511 59.136 607.607 58.9013 607.799 58.72C607.991 58.528 608.237 58.432 608.535 58.432C608.813 58.432 609.047 58.528 609.239 58.72C609.431 58.9013 609.527 59.136 609.527 59.424C609.527 59.712 609.431 59.952 609.239 60.144C609.047 60.3253 608.813 60.416 608.535 60.416ZM611.847 60.416C611.549 60.416 611.303 60.3253 611.111 60.144C610.93 59.952 610.839 59.712 610.839 59.424C610.839 59.136 610.93 58.9013 611.111 58.72C611.303 58.528 611.549 58.432 611.847 58.432C612.135 58.432 612.375 58.528 612.567 58.72C612.759 58.9013 612.855 59.136 612.855 59.424C612.855 59.712 612.759 59.952 612.567 60.144C612.375 60.3253 612.135 60.416 611.847 60.416ZM619.274 70H617.706V63.168H614.842V61.728H622.138V63.168H619.274V70ZM627.077 70.16C626.235 70.16 625.483 69.9787 624.821 69.616C624.16 69.2533 623.643 68.7467 623.269 68.096C622.896 67.4453 622.709 66.704 622.709 65.872C622.709 65.04 622.896 64.2987 623.269 63.648C623.643 62.9973 624.16 62.4907 624.821 62.128C625.483 61.7547 626.235 61.568 627.077 61.568C627.92 61.568 628.672 61.7547 629.333 62.128C629.995 62.4907 630.512 62.9973 630.885 63.648C631.259 64.2987 631.445 65.04 631.445 65.872C631.445 66.704 631.259 67.4453 630.885 68.096C630.512 68.7467 629.995 69.2533 629.333 69.616C628.672 69.9787 627.92 70.16 627.077 70.16ZM627.077 68.72C627.888 68.72 628.544 68.4587 629.045 67.936C629.557 67.4133 629.813 66.7253 629.813 65.872C629.813 65.0187 629.557 64.3307 629.045 63.808C628.544 63.2747 627.888 63.008 627.077 63.008C626.267 63.008 625.611 63.2747 625.109 63.808C624.608 64.3307 624.357 65.0187 624.357 65.872C624.357 66.7147 624.608 67.4027 625.109 67.936C625.611 68.4587 626.267 68.72 627.077 68.72ZM638.615 65.664C639.041 65.824 639.383 66.0853 639.639 66.448C639.905 66.8 640.039 67.216 640.039 67.696C640.039 68.1333 639.911 68.528 639.655 68.88C639.409 69.232 639.063 69.5093 638.615 69.712C638.167 69.904 637.655 70 637.079 70H633.127V61.728H636.935C637.479 61.728 637.964 61.824 638.391 62.016C638.817 62.208 639.148 62.4693 639.383 62.8C639.628 63.1307 639.751 63.5093 639.751 63.936C639.751 64.3413 639.649 64.6933 639.447 64.992C639.255 65.28 638.977 65.504 638.615 65.664ZM634.695 63.056V65.088H636.935C637.297 65.088 637.596 64.9973 637.831 64.816C638.065 64.624 638.183 64.3787 638.183 64.08C638.183 63.7813 638.065 63.536 637.831 63.344C637.596 63.152 637.297 63.056 636.935 63.056H634.695ZM637.079 68.672C637.495 68.672 637.831 68.5653 638.087 68.352C638.343 68.1387 638.471 67.8613 638.471 67.52C638.471 67.1787 638.343 66.9013 638.087 66.688C637.831 66.4747 637.495 66.368 637.079 66.368H634.695V68.672H637.079Z" fill="white"/>
<path d="M249.066 283.27H246.856V278.304H241.864V276.068H246.856V271.102H249.066V276.068H254.058V278.304H249.066V283.27ZM260.078 286V272.454H256.49V270.01H258.96C259.307 270.01 259.575 269.906 259.766 269.698C259.974 269.49 260.078 269.213 260.078 268.866V267.67H262.756V286H260.078ZM273.734 286.208C272.33 286.208 271.082 285.818 269.99 285.038C268.898 284.258 268.048 283.157 267.442 281.736C266.835 280.315 266.532 278.685 266.532 276.848C266.532 275.011 266.835 273.381 267.442 271.96C268.048 270.539 268.898 269.438 269.99 268.658C271.082 267.878 272.33 267.488 273.734 267.488C275.138 267.488 276.386 267.878 277.478 268.658C278.57 269.438 279.41 270.539 280 271.96C280.606 273.381 280.91 275.011 280.91 276.848C280.91 278.685 280.606 280.315 280 281.736C279.41 283.157 278.57 284.258 277.478 285.038C276.386 285.818 275.138 286.208 273.734 286.208ZM273.734 283.738C274.6 283.738 275.363 283.452 276.022 282.88C276.698 282.308 277.218 281.502 277.582 280.462C277.946 279.422 278.128 278.217 278.128 276.848C278.128 275.461 277.946 274.248 277.582 273.208C277.218 272.168 276.698 271.371 276.022 270.816C275.363 270.244 274.6 269.958 273.734 269.958C272.85 269.958 272.078 270.244 271.42 270.816C270.761 271.371 270.25 272.168 269.886 273.208C269.522 274.248 269.34 275.461 269.34 276.848C269.34 278.217 269.522 279.422 269.886 280.462C270.25 281.502 270.761 282.308 271.42 282.88C272.078 283.452 272.85 283.738 273.734 283.738ZM287.707 276.042C286.407 276.042 285.341 275.643 284.509 274.846C283.677 274.031 283.261 272.991 283.261 271.726C283.261 270.894 283.452 270.149 283.833 269.49C284.214 268.831 284.743 268.32 285.419 267.956C286.095 267.592 286.858 267.41 287.707 267.41C288.539 267.41 289.293 267.601 289.969 267.982C290.645 268.346 291.174 268.857 291.555 269.516C291.936 270.157 292.127 270.894 292.127 271.726C292.127 272.991 291.711 274.031 290.879 274.846C290.047 275.643 288.99 276.042 287.707 276.042ZM288.591 286H286.173L297.483 267.67H299.901L288.591 286ZM287.707 274.092C288.4 274.092 288.964 273.875 289.397 273.442C289.83 272.991 290.047 272.419 290.047 271.726C290.047 271.033 289.83 270.469 289.397 270.036C288.964 269.585 288.4 269.36 287.707 269.36C287.014 269.36 286.442 269.577 285.991 270.01C285.558 270.443 285.341 271.015 285.341 271.726C285.341 272.419 285.558 272.991 285.991 273.442C286.442 273.875 287.014 274.092 287.707 274.092ZM298.367 286.26C297.067 286.26 296.001 285.861 295.169 285.064C294.354 284.249 293.947 283.201 293.947 281.918C293.947 280.653 294.354 279.621 295.169 278.824C296.001 278.027 297.067 277.628 298.367 277.628C299.216 277.628 299.97 277.81 300.629 278.174C301.305 278.538 301.834 279.049 302.215 279.708C302.596 280.349 302.787 281.086 302.787 281.918C302.787 282.75 302.596 283.495 302.215 284.154C301.834 284.813 301.305 285.333 300.629 285.714C299.97 286.078 299.216 286.26 298.367 286.26ZM298.367 284.31C299.06 284.31 299.624 284.093 300.057 283.66C300.49 283.209 300.707 282.629 300.707 281.918C300.707 281.225 300.49 280.661 300.057 280.228C299.624 279.795 299.06 279.578 298.367 279.578C297.656 279.578 297.084 279.795 296.651 280.228C296.218 280.661 296.001 281.225 296.001 281.918C296.001 282.629 296.218 283.209 296.651 283.66C297.102 284.093 297.674 284.31 298.367 284.31Z" fill="white"/>
<path d="M357.175 283.27H354.965V278.304H349.973V276.068H354.965V271.102H357.175V276.068H362.167V278.304H357.175V283.27ZM368.187 286V272.454H364.599V270.01H367.069C367.416 270.01 367.685 269.906 367.875 269.698C368.083 269.49 368.187 269.213 368.187 268.866V267.67H370.865V286H368.187ZM381.895 273.702C383.039 273.702 384.062 273.971 384.963 274.508C385.864 275.045 386.566 275.791 387.069 276.744C387.572 277.697 387.823 278.772 387.823 279.968C387.823 281.181 387.546 282.265 386.991 283.218C386.454 284.171 385.7 284.917 384.729 285.454C383.758 285.991 382.649 286.26 381.401 286.26C379.772 286.26 378.376 285.818 377.215 284.934C376.071 284.05 375.3 282.88 374.901 281.424L377.475 280.982C377.874 281.901 378.394 282.603 379.035 283.088C379.694 283.556 380.465 283.79 381.349 283.79C382.458 283.79 383.351 283.435 384.027 282.724C384.72 282.013 385.067 281.095 385.067 279.968C385.067 278.841 384.729 277.931 384.053 277.238C383.394 276.527 382.536 276.172 381.479 276.172C380.716 276.172 380.032 276.354 379.425 276.718C378.836 277.065 378.368 277.515 378.021 278.07H375.421L376.487 267.67H387.017V270.14H378.749L378.281 274.898C379.269 274.101 380.474 273.702 381.895 273.702ZM394.598 276.042C393.298 276.042 392.232 275.643 391.4 274.846C390.568 274.031 390.152 272.991 390.152 271.726C390.152 270.894 390.342 270.149 390.724 269.49C391.105 268.831 391.634 268.32 392.31 267.956C392.986 267.592 393.748 267.41 394.598 267.41C395.43 267.41 396.184 267.601 396.86 267.982C397.536 268.346 398.064 268.857 398.446 269.516C398.827 270.157 399.018 270.894 399.018 271.726C399.018 272.991 398.602 274.031 397.77 274.846C396.938 275.643 395.88 276.042 394.598 276.042ZM395.482 286H393.064L404.374 267.67H406.792L395.482 286ZM394.598 274.092C395.291 274.092 395.854 273.875 396.288 273.442C396.721 272.991 396.938 272.419 396.938 271.726C396.938 271.033 396.721 270.469 396.288 270.036C395.854 269.585 395.291 269.36 394.598 269.36C393.904 269.36 393.332 269.577 392.882 270.01C392.448 270.443 392.232 271.015 392.232 271.726C392.232 272.419 392.448 272.991 392.882 273.442C393.332 273.875 393.904 274.092 394.598 274.092ZM405.258 286.26C403.958 286.26 402.892 285.861 402.06 285.064C401.245 284.249 400.838 283.201 400.838 281.918C400.838 280.653 401.245 279.621 402.06 278.824C402.892 278.027 403.958 277.628 405.258 277.628C406.107 277.628 406.861 277.81 407.52 278.174C408.196 278.538 408.724 279.049 409.106 279.708C409.487 280.349 409.678 281.086 409.678 281.918C409.678 282.75 409.487 283.495 409.106 284.154C408.724 284.813 408.196 285.333 407.52 285.714C406.861 286.078 406.107 286.26 405.258 286.26ZM405.258 284.31C405.951 284.31 406.514 284.093 406.948 283.66C407.381 283.209 407.598 282.629 407.598 281.918C407.598 281.225 407.381 280.661 406.948 280.228C406.514 279.795 405.951 279.578 405.258 279.578C404.547 279.578 403.975 279.795 403.542 280.228C403.108 280.661 402.892 281.225 402.892 281.918C402.892 282.629 403.108 283.209 403.542 283.66C403.992 284.093 404.564 284.31 405.258 284.31Z" fill="white"/>
<path d="M461.629 283.27H459.419V278.304H454.427V276.068H459.419V271.102H461.629V276.068H466.621V278.304H461.629V283.27ZM469.625 286V282.854L476.489 276.562C477.199 275.903 477.728 275.288 478.075 274.716C478.421 274.127 478.595 273.494 478.595 272.818C478.595 271.934 478.317 271.223 477.763 270.686C477.208 270.149 476.489 269.88 475.605 269.88C473.941 269.88 472.727 270.929 471.965 273.026L469.443 272.61C469.893 271.033 470.656 269.776 471.731 268.84C472.805 267.887 474.131 267.41 475.709 267.41C476.801 267.41 477.78 267.644 478.647 268.112C479.513 268.563 480.189 269.204 480.675 270.036C481.16 270.851 481.403 271.769 481.403 272.792C481.403 273.849 481.134 274.794 480.597 275.626C480.077 276.458 479.262 277.385 478.153 278.408L473.005 283.114V283.504L481.533 283.426V286H469.625ZM491.171 286.208C489.767 286.208 488.519 285.818 487.427 285.038C486.335 284.258 485.486 283.157 484.879 281.736C484.272 280.315 483.969 278.685 483.969 276.848C483.969 275.011 484.272 273.381 484.879 271.96C485.486 270.539 486.335 269.438 487.427 268.658C488.519 267.878 489.767 267.488 491.171 267.488C492.575 267.488 493.823 267.878 494.915 268.658C496.007 269.438 496.848 270.539 497.437 271.96C498.044 273.381 498.347 275.011 498.347 276.848C498.347 278.685 498.044 280.315 497.437 281.736C496.848 283.157 496.007 284.258 494.915 285.038C493.823 285.818 492.575 286.208 491.171 286.208ZM491.171 283.738C492.038 283.738 492.8 283.452 493.459 282.88C494.135 282.308 494.655 281.502 495.019 280.462C495.383 279.422 495.565 278.217 495.565 276.848C495.565 275.461 495.383 274.248 495.019 273.208C494.655 272.168 494.135 271.371 493.459 270.816C492.8 270.244 492.038 269.958 491.171 269.958C490.287 269.958 489.516 270.244 488.857 270.816C488.198 271.371 487.687 272.168 487.323 273.208C486.959 274.248 486.777 275.461 486.777 276.848C486.777 278.217 486.959 279.422 487.323 280.462C487.687 281.502 488.198 282.308 488.857 282.88C489.516 283.452 490.287 283.738 491.171 283.738ZM505.144 276.042C503.844 276.042 502.778 275.643 501.946 274.846C501.114 274.031 500.698 272.991 500.698 271.726C500.698 270.894 500.889 270.149 501.27 269.49C501.652 268.831 502.18 268.32 502.856 267.956C503.532 267.592 504.295 267.41 505.144 267.41C505.976 267.41 506.73 267.601 507.406 267.982C508.082 268.346 508.611 268.857 508.992 269.516C509.374 270.157 509.564 270.894 509.564 271.726C509.564 272.991 509.148 274.031 508.316 274.846C507.484 275.643 506.427 276.042 505.144 276.042ZM506.028 286H503.61L514.92 267.67H517.338L506.028 286ZM505.144 274.092C505.838 274.092 506.401 273.875 506.834 273.442C507.268 272.991 507.484 272.419 507.484 271.726C507.484 271.033 507.268 270.469 506.834 270.036C506.401 269.585 505.838 269.36 505.144 269.36C504.451 269.36 503.879 269.577 503.428 270.01C502.995 270.443 502.778 271.015 502.778 271.726C502.778 272.419 502.995 272.991 503.428 273.442C503.879 273.875 504.451 274.092 505.144 274.092ZM515.804 286.26C514.504 286.26 513.438 285.861 512.606 285.064C511.792 284.249 511.384 283.201 511.384 281.918C511.384 280.653 511.792 279.621 512.606 278.824C513.438 278.027 514.504 277.628 515.804 277.628C516.654 277.628 517.408 277.81 518.066 278.174C518.742 278.538 519.271 279.049 519.652 279.708C520.034 280.349 520.224 281.086 520.224 281.918C520.224 282.75 520.034 283.495 519.652 284.154C519.271 284.813 518.742 285.333 518.066 285.714C517.408 286.078 516.654 286.26 515.804 286.26ZM515.804 284.31C516.498 284.31 517.061 284.093 517.494 283.66C517.928 283.209 518.144 282.629 518.144 281.918C518.144 281.225 517.928 280.661 517.494 280.228C517.061 279.795 516.498 279.578 515.804 279.578C515.094 279.578 514.522 279.795 514.088 280.228C513.655 280.661 513.438 281.225 513.438 281.918C513.438 282.629 513.655 283.209 514.088 283.66C514.539 284.093 515.111 284.31 515.804 284.31Z" fill="white"/>
<path d="M568.238 283.27H566.028V278.304H561.036V276.068H566.028V271.102H568.238V276.068H573.23V278.304H568.238V283.27ZM576.234 286V282.854L583.098 276.562C583.809 275.903 584.337 275.288 584.684 274.716C585.031 274.127 585.204 273.494 585.204 272.818C585.204 271.934 584.927 271.223 584.372 270.686C583.817 270.149 583.098 269.88 582.214 269.88C580.55 269.88 579.337 270.929 578.574 273.026L576.052 272.61C576.503 271.033 577.265 269.776 578.34 268.84C579.415 267.887 580.741 267.41 582.318 267.41C583.41 267.41 584.389 267.644 585.256 268.112C586.123 268.563 586.799 269.204 587.284 270.036C587.769 270.851 588.012 271.769 588.012 272.792C588.012 273.849 587.743 274.794 587.206 275.626C586.686 276.458 585.871 277.385 584.762 278.408L579.614 283.114V283.504L588.142 283.426V286H576.234ZM597.832 273.702C598.976 273.702 599.999 273.971 600.9 274.508C601.802 275.045 602.504 275.791 603.006 276.744C603.509 277.697 603.76 278.772 603.76 279.968C603.76 281.181 603.483 282.265 602.928 283.218C602.391 284.171 601.637 284.917 600.666 285.454C599.696 285.991 598.586 286.26 597.338 286.26C595.709 286.26 594.314 285.818 593.152 284.934C592.008 284.05 591.237 282.88 590.838 281.424L593.412 280.982C593.811 281.901 594.331 282.603 594.972 283.088C595.631 283.556 596.402 283.79 597.286 283.79C598.396 283.79 599.288 283.435 599.964 282.724C600.658 282.013 601.004 281.095 601.004 279.968C601.004 278.841 600.666 277.931 599.99 277.238C599.332 276.527 598.474 276.172 597.416 276.172C596.654 276.172 595.969 276.354 595.362 276.718C594.773 277.065 594.305 277.515 593.958 278.07H591.358L592.424 267.67H602.954V270.14H594.686L594.218 274.898C595.206 274.101 596.411 273.702 597.832 273.702ZM610.535 276.042C609.235 276.042 608.169 275.643 607.337 274.846C606.505 274.031 606.089 272.991 606.089 271.726C606.089 270.894 606.28 270.149 606.661 269.49C607.042 268.831 607.571 268.32 608.247 267.956C608.923 267.592 609.686 267.41 610.535 267.41C611.367 267.41 612.121 267.601 612.797 267.982C613.473 268.346 614.002 268.857 614.383 269.516C614.764 270.157 614.955 270.894 614.955 271.726C614.955 272.991 614.539 274.031 613.707 274.846C612.875 275.643 611.818 276.042 610.535 276.042ZM611.419 286H609.001L620.311 267.67H622.729L611.419 286ZM610.535 274.092C611.228 274.092 611.792 273.875 612.225 273.442C612.658 272.991 612.875 272.419 612.875 271.726C612.875 271.033 612.658 270.469 612.225 270.036C611.792 269.585 611.228 269.36 610.535 269.36C609.842 269.36 609.27 269.577 608.819 270.01C608.386 270.443 608.169 271.015 608.169 271.726C608.169 272.419 608.386 272.991 608.819 273.442C609.27 273.875 609.842 274.092 610.535 274.092ZM621.195 286.26C619.895 286.26 618.829 285.861 617.997 285.064C617.182 284.249 616.775 283.201 616.775 281.918C616.775 280.653 617.182 279.621 617.997 278.824C618.829 278.027 619.895 277.628 621.195 277.628C622.044 277.628 622.798 277.81 623.457 278.174C624.133 278.538 624.662 279.049 625.043 279.708C625.424 280.349 625.615 281.086 625.615 281.918C625.615 282.75 625.424 283.495 625.043 284.154C624.662 284.813 624.133 285.333 623.457 285.714C622.798 286.078 622.044 286.26 621.195 286.26ZM621.195 284.31C621.888 284.31 622.452 284.093 622.885 283.66C623.318 283.209 623.535 282.629 623.535 281.918C623.535 281.225 623.318 280.661 622.885 280.228C622.452 279.795 621.888 279.578 621.195 279.578C620.484 279.578 619.912 279.795 619.479 280.228C619.046 280.661 618.829 281.225 618.829 281.918C618.829 282.629 619.046 283.209 619.479 283.66C619.93 284.093 620.502 284.31 621.195 284.31Z" fill="white"/>
</svg>
