<svg width="51" height="51" viewBox="0 0 51 51" fill="none" xmlns="http://www.w3.org/2000/svg">
<path fill-rule="evenodd" clip-rule="evenodd" d="M4.01472 4.26765C0.5 7.78237 0.5 13.4392 0.5 24.7529V26.7529C0.5 38.0666 0.5 43.7235 4.01472 47.2382C7.52944 50.7529 13.1863 50.7529 24.5 50.7529H26.5C37.8137 50.7529 43.4706 50.7529 46.9853 47.2382C50.5 43.7235 50.5 38.0666 50.5 26.7529V24.7529C50.5 13.4392 50.5 7.78237 46.9853 4.26765C43.4706 0.75293 37.8137 0.75293 26.5 0.75293H24.5C13.1863 0.75293 7.52944 0.75293 4.01472 4.26765ZM8.93737 15.9592C9.20821 28.9592 15.7081 36.7717 27.104 36.7717H27.7499V29.3342C31.9374 29.7509 35.1039 32.8134 36.3747 36.7717H42.2916C40.6666 30.855 36.3955 27.5842 33.7288 26.3342C36.3955 24.7925 40.1455 21.0426 41.0414 15.9592H35.6662C34.4995 20.0842 31.0416 23.8342 27.7499 24.1883V15.9592H22.3748V30.3759C19.0414 29.5425 14.8332 25.5009 14.6457 15.9592H8.93737Z" fill="white"/>
</svg>
