<svg width="41" height="40" viewBox="0 0 41 40" fill="none" xmlns="http://www.w3.org/2000/svg">
<path d="M19.668 40C10.66 40 6.132 40 3.332 37.216C0.5 34.416 0.5 29.888 0.5 20.848V19.184C0.5 10.144 0.5 5.616 3.332 2.816C6.132 0 10.66 0 19.668 0H21.332C30.372 0 34.868 0 37.7 2.816C40.5 5.632 40.5 10.144 40.5 19.184V20.848C40.5 29.888 40.5 34.416 37.7 37.216C34.868 40 30.372 40 21.332 40H19.668Z" fill="#0077FF"/>
<path d="M22.468 28.8478V22.8958C25.748 23.2318 28.1959 25.6798 29.204 28.8478H33.94C32.66 24.1118 29.332 21.4878 27.252 20.4958C29.316 19.2638 32.2439 16.2558 32.9319 12.1918H28.628C27.732 15.5038 25.044 18.4958 22.468 18.7838V12.1758H18.1V23.7118C15.444 23.0398 11.972 19.8078 11.812 12.1758H7.25195C7.45995 22.5758 12.932 28.8318 21.956 28.8318L22.468 28.8478Z" fill="white"/>
</svg>
