<svg width="64" height="61" viewBox="0 0 64 61" fill="none" xmlns="http://www.w3.org/2000/svg">
<circle cx="32" cy="30.5001" r="30" fill="#0077FF"/>
<path d="M40.1013 16.412C40.5856 16.9313 40.5571 17.7449 40.0378 18.2292L38.3306 19.8214C39.3699 20.6341 40.249 21.6423 40.9125 22.7908L40.9999 22.7858H44.8571C45.5672 22.7858 46.1428 23.3615 46.1428 24.0715C46.1428 24.7309 45.6465 25.2743 45.007 25.3486L44.8571 25.3573L41.9615 25.3568C42.1731 26.1788 42.2856 27.0406 42.2856 27.9287V30.4996L47.4285 30.5001C48.0879 30.5001 48.6313 30.9965 48.7056 31.6359L48.7142 31.7858C48.7142 32.4452 48.2179 32.9886 47.5784 33.0629L47.4285 33.0715L42.2856 33.071V35.643C42.2856 36.5311 42.1731 37.3928 41.9615 38.2149L44.8571 38.2144C45.5672 38.2144 46.1428 38.79 46.1428 39.5001C46.1428 40.1595 45.6465 40.7029 45.007 40.7772L44.8571 40.7858H40.9999L40.9109 40.7828C39.1347 43.858 35.8091 45.9287 31.9999 45.9287C28.1907 45.9287 24.8652 43.858 23.0874 40.7809L22.9999 40.7858H19.1428C18.4327 40.7858 17.8571 40.2102 17.8571 39.5001C17.8571 38.8408 18.3534 38.2973 18.9928 38.2231L19.1428 38.2144L22.0384 38.2149C21.8268 37.3928 21.7142 36.5311 21.7142 35.643V33.071L16.5714 33.0715C15.912 33.0715 15.3686 32.5752 15.2943 31.9358L15.2856 31.7858C15.2856 31.1265 15.782 30.583 16.4214 30.5088L16.5714 30.5001L21.7142 30.4996V27.9287C21.7142 27.0406 21.8268 26.1788 22.0384 25.3568L19.1428 25.3573C18.4327 25.3573 17.8571 24.7816 17.8571 24.0715C17.8571 23.4122 18.3534 22.8688 18.9928 22.7945L19.1428 22.7858H22.9999L23.0884 22.7888C23.7539 21.6369 24.6368 20.626 25.681 19.812L23.9835 18.2292C23.4642 17.7449 23.4358 16.9313 23.9201 16.412C24.3671 15.9326 25.0947 15.8716 25.6125 16.2459L25.7373 16.3486L27.9939 18.4522C29.225 17.9312 30.5788 17.643 31.9999 17.643C33.427 17.643 34.7862 17.9336 36.0216 18.4589L38.2841 16.3486C38.8034 15.8643 39.617 15.8927 40.1013 16.412ZM31.9999 20.2144C27.7394 20.2144 24.2856 23.6682 24.2856 27.9287V35.643C24.2856 39.9035 27.7394 43.3573 31.9999 43.3573C36.2604 43.3573 39.7142 39.9035 39.7142 35.643V27.9287C39.7142 23.6682 36.2604 20.2144 31.9999 20.2144ZM33.2856 34.3573C33.9957 34.3573 34.5714 34.9329 34.5714 35.643C34.5714 36.3531 33.9957 36.9287 33.2856 36.9287H30.7142C30.0041 36.9287 29.4285 36.3531 29.4285 35.643C29.4285 34.9329 30.0041 34.3573 30.7142 34.3573H33.2856ZM30.7142 26.643H33.2856C33.9957 26.643 34.5714 27.2186 34.5714 27.9287C34.5714 28.5881 34.075 29.1315 33.4356 29.2058L33.2856 29.2144H30.7142C30.0041 29.2144 29.4285 28.6388 29.4285 27.9287C29.4285 27.2693 29.9248 26.7259 30.5643 26.6516L30.7142 26.643H33.2856H30.7142Z" fill="white"/>
</svg>
